<?xml version="1.0" standalone="no"?>
<!DOCTYPE svg PUBLIC "-//W3C//DTD SVG 20010904//EN"
 "http://www.w3.org/TR/2001/REC-SVG-20010904/DTD/svg10.dtd">
<svg version="1.0" xmlns="http://www.w3.org/2000/svg"
 width="144.000000pt" height="130.000000pt" viewBox="0 0 144.000000 130.000000"
 preserveAspectRatio="xMidYMid meet">

<g transform="translate(0.000000,130.000000) scale(0.100000,-0.100000)"
fill="#000000" stroke="none">
<path d="M725 1290 c-27 -4 -62 -12 -76 -18 -15 -6 -31 -7 -40 -1 -26 17 -103
10 -149 -13 -33 -17 -48 -32 -56 -57 -6 -18 -19 -38 -30 -44 -37 -19 -73 -60
-80 -91 -3 -17 -13 -39 -22 -48 -11 -14 -13 -31 -9 -76 5 -45 3 -64 -10 -82
-14 -20 -14 -29 -4 -71 9 -34 10 -53 2 -68 -6 -11 -11 -40 -11 -65 0 -77 54
-107 125 -70 27 14 30 14 43 -3 11 -16 10 -20 -10 -36 -52 -41 -88 -80 -88
-94 0 -8 16 -44 36 -79 19 -35 33 -68 30 -73 -3 -5 -50 -28 -103 -51 -187 -81
-242 -122 -263 -198 -5 -20 -10 -40 -10 -44 0 -5 324 -8 720 -8 l720 0 -6 28
c-23 95 -52 120 -238 207 -69 32 -126 64 -126 71 0 7 16 46 36 87 24 51 33 83
29 97 -4 11 -31 34 -61 51 -54 31 -64 45 -44 65 8 8 23 8 49 1 51 -14 86 8
100 61 12 44 -2 110 -24 119 -12 4 -13 20 -9 76 7 81 -7 150 -36 174 -13 12
-17 25 -13 48 11 67 -65 155 -121 141 -15 -4 -26 1 -34 15 -10 16 -20 19 -38
15 -19 -5 -33 0 -55 19 -32 26 -42 27 -124 15z m-135 -85 c14 -8 45 -14 70
-15 51 0 90 -22 90 -50 0 -30 -19 -34 -40 -7 -19 24 -67 44 -78 33 -2 -3 6
-15 19 -27 21 -18 22 -20 4 -16 -11 3 -34 11 -51 18 -42 17 -82 4 -102 -31 -9
-16 -21 -29 -27 -29 -30 3 -42 -4 -50 -33 -6 -18 -18 -34 -27 -36 -55 -10 25
93 97 127 53 25 57 39 13 43 l-33 3 30 17 c37 21 53 22 85 3z m301 -40 c-44
-51 -41 -64 14 -57 35 3 50 0 65 -13 28 -25 25 -34 -12 -33 -18 0 -47 -3 -64
-7 -29 -6 -33 -4 -53 35 -16 31 -19 46 -11 60 13 25 50 50 73 50 16 0 15 -5
-12 -35z m-200 -79 c25 -8 57 -12 72 -9 65 13 109 -30 100 -94 -3 -21 2 -44
17 -71 24 -42 23 -80 -1 -73 -45 13 -86 10 -117 -9 l-32 -20 5 -115 c4 -101 3
-116 -11 -122 -11 -4 -23 2 -34 17 -12 16 -19 19 -25 11 -4 -7 -14 -10 -22 -7
-9 4 -13 1 -11 -6 3 -7 19 -14 36 -16 18 -2 32 -7 32 -11 0 -4 16 -7 35 -7 42
2 84 38 68 58 -17 20 -28 108 -14 108 8 0 7 6 -1 21 -11 17 -11 23 0 26 6 3 9
9 6 14 -9 15 26 49 51 49 31 0 44 -19 42 -60 -1 -23 -8 -38 -22 -45 -20 -10
-33 -45 -18 -45 19 0 53 33 53 51 0 11 7 19 16 19 13 0 14 -11 8 -72 -7 -79
-32 -149 -66 -185 -27 -29 -36 -29 -46 -2 -6 16 -18 22 -48 24 -21 1 -45 -2
-51 -7 -9 -7 -17 -7 -26 0 -15 12 -87 5 -87 -9 0 -5 6 -6 14 -3 8 3 17 1 20
-4 3 -5 28 -6 62 0 61 9 81 2 70 -27 -5 -14 -14 -16 -50 -11 -27 4 -47 3 -51
-4 -4 -6 10 -10 37 -10 63 0 87 -30 52 -64 -10 -11 -34 -16 -69 -16 -49 0 -59
4 -110 45 -30 25 -55 43 -55 40 0 -3 11 -23 25 -45 30 -47 86 -86 138 -95 44
-9 46 -22 10 -67 -34 -40 -43 -48 -64 -48 -28 0 -107 78 -134 133 -25 52 -25
54 -9 106 14 48 14 57 0 92 -9 22 -16 51 -16 65 0 22 -2 24 -15 14 -8 -6 -18
-9 -23 -6 -16 10 -20 55 -6 73 9 12 13 48 14 101 0 49 5 94 14 110 7 15 16 51
19 81 10 87 41 119 127 132 25 3 45 7 45 8 0 0 21 -5 46 -13z m301 -73 c20
-18 43 -81 33 -91 -4 -4 -16 5 -28 20 -49 61 -67 86 -67 93 0 10 43 -5 62 -22z
m39 -143 c25 -14 24 -32 -1 -48 -29 -18 -26 -60 5 -74 20 -9 28 -8 43 5 25 22
39 21 47 -3 8 -26 1 -36 -31 -44 -38 -10 -80 10 -104 49 -24 39 -25 57 -5 95
17 34 19 34 46 20z m-715 -177 c10 -15 15 -16 25 -5 7 6 19 12 27 12 10 0 7
-8 -8 -30 -27 -38 -67 -41 -76 -6 -6 24 1 46 13 46 3 0 12 -8 19 -17z m464
-93 c0 -11 -4 -20 -10 -20 -5 0 -10 9 -10 20 0 11 5 20 10 20 6 0 10 -9 10
-20z m174 -176 c13 -34 6 -110 -14 -141 -25 -41 -96 -93 -127 -93 -17 0 -31
13 -53 47 -17 26 -27 50 -23 53 5 4 30 15 57 25 53 19 121 75 131 106 8 23 21
25 29 3z m-331 -263 c15 -13 27 -32 27 -42 0 -54 -102 16 -139 96 -35 74 -26
81 32 23 29 -29 65 -64 80 -77z m-145 24 c58 -85 72 -126 31 -89 -27 25 -109
165 -103 176 7 12 1 19 72 -87z m468 -3 c-39 -76 -86 -108 -114 -80 -20 20
-13 32 26 50 24 11 49 35 67 65 28 44 30 45 33 21 2 -15 -4 -40 -12 -56z
m-196 27 c0 -32 -19 -59 -41 -59 -26 0 -20 -24 7 -28 14 -2 24 6 32 23 14 30
28 32 42 6 8 -16 5 -23 -16 -40 -53 -41 -119 -14 -112 46 3 24 7 28 31 26 22
-1 27 2 27 21 0 12 3 26 6 29 11 11 24 -3 24 -24z"/>
<path d="M506 829 c-27 -21 -36 -69 -13 -69 7 0 18 -9 25 -20 7 -11 17 -20 22
-20 6 0 5 8 -2 20 -10 15 -10 22 0 32 9 9 12 8 12 -5 0 -18 29 -37 48 -30 6 3
12 14 12 25 0 11 5 18 13 15 6 -2 11 -14 9 -27 -2 -20 0 -21 14 -9 15 12 16
10 10 -27 -5 -29 -3 -44 6 -52 11 -9 14 3 15 64 1 73 0 75 -32 99 -41 32 -101
34 -139 4z m93 -6 l24 -16 -23 -9 c-13 -5 -41 -11 -62 -13 -42 -6 -49 6 -21
37 20 22 51 23 82 1z m-9 -53 c0 -5 -4 -10 -10 -10 -5 0 -10 5 -10 10 0 6 5
10 10 10 6 0 10 -4 10 -10z"/>
<path d="M838 792 c-31 -4 -38 -31 -15 -51 16 -12 40 3 50 31 7 21 1 25 -35
20z m10 -23 c-2 -6 -8 -10 -13 -10 -5 0 -11 4 -13 10 -2 6 4 11 13 11 9 0 15
-5 13 -11z"/>
</g>
</svg>
