<?xml version="1.0" standalone="no"?>
<!DOCTYPE svg PUBLIC "-//W3C//DTD SVG 20010904//EN"
 "http://www.w3.org/TR/2001/REC-SVG-20010904/DTD/svg10.dtd">
<svg version="1.0" xmlns="http://www.w3.org/2000/svg"
 width="1200.000000pt" height="669.000000pt" viewBox="0 0 1200.000000 669.000000"
 preserveAspectRatio="xMidYMid meet">

<g transform="translate(0.000000,669.000000) scale(0.100000,-0.100000)"
fill="#000000" stroke="none">
<path d="M3660 6559 c-596 -51 -1134 -202 -1609 -450 -566 -296 -1064 -749
-1438 -1309 -171 -256 -348 -597 -442 -852 -68 -182 -67 -228 4 -228 40 0 47
8 130 160 464 851 1187 1448 2137 1762 381 125 754 199 1248 244 256 24 871
24 1170 0 978 -77 1954 -284 3030 -643 346 -115 836 -300 1053 -397 69 -31 91
-32 117 -6 30 30 25 65 -12 93 -81 60 -684 383 -1033 553 -1333 649 -2456 990
-3539 1074 -150 12 -677 11 -816 -1z"/>
<path d="M1357 4426 c-21 -8 -48 -22 -59 -33 -50 -44 -48 26 -48 -1649 l0
-1567 143 5 c78 3 176 13 217 23 98 22 242 92 307 149 61 55 123 150 155 238
l23 63 3 1393 2 1392 -352 0 c-272 -1 -362 -4 -391 -14z"/>
<path d="M2812 4425 c-61 -19 -89 -40 -112 -84 -14 -29 -130 -470 -130 -497 0
-2 234 -4 520 -4 l520 0 0 -1331 0 -1332 153 6 c329 12 530 116 638 329 67
132 63 62 67 1250 l3 1077 432 3 c385 3 437 5 477 21 49 20 94 58 115 98 11
19 115 453 115 475 0 2 -620 4 -1377 3 -1120 0 -1386 -3 -1421 -14z"/>
<path d="M6181 4430 c-47 -11 -83 -40 -106 -86 -20 -38 -20 -62 -23 -1603 l-2
-1564 152 6 c182 7 285 30 402 90 133 68 217 165 275 316 l26 66 5 435 5 435
350 5 c255 4 358 9 380 18 46 20 91 58 115 97 18 30 150 446 150 475 0 7 -172
10 -495 10 l-495 0 0 349 0 349 528 4 c581 5 588 6 664 68 20 17 48 54 61 83
20 43 147 433 147 451 0 9 -2101 5 -2139 -4z"/>
<path d="M11535 1406 c-43 -19 -66 -49 -72 -93 -13 -103 120 -164 192 -87 77
84 -16 225 -120 180z m98 -26 c53 -42 44 -136 -16 -166 -96 -50 -182 71 -111
155 32 38 87 43 127 11z"/>
<path d="M11530 1300 c0 -33 4 -60 10 -60 6 0 10 11 10 25 0 18 5 25 20 25 13
0 22 -9 26 -25 3 -14 10 -25 15 -25 11 0 11 3 -1 36 -7 18 -7 30 0 39 20 24 0
45 -41 45 l-39 0 0 -60z m67 34 c6 -16 -12 -34 -34 -34 -7 0 -13 11 -13 25 0
18 5 25 20 25 11 0 23 -7 27 -16z"/>
<path d="M1290 716 l-35 -13 -3 -286 -2 -287 40 0 40 0 0 300 c0 165 -1 300
-2 299 -2 0 -19 -6 -38 -13z"/>
<path d="M3896 714 c-9 -8 -16 -22 -16 -29 0 -7 7 -21 16 -29 30 -30 74 -13
74 29 0 42 -44 59 -74 29z"/>
<path d="M5363 716 l-33 -9 0 -264 0 -264 25 -23 c24 -22 65 -36 106 -36 30 0
25 48 -6 56 -48 12 -50 21 -55 293 l-5 257 -32 -10z"/>
<path d="M5800 704 c-6 -14 -10 -27 -10 -30 0 -2 38 -4 85 -4 l85 0 0 -270 0
-270 40 0 40 0 0 270 0 270 80 0 c78 0 80 0 95 30 l16 30 -211 0 -210 0 -10
-26z"/>
<path d="M7442 718 c-16 -16 -15 -53 3 -68 19 -16 45 -10 61 15 26 39 -31 86
-64 53z"/>
<path d="M8290 430 l0 -300 40 0 40 0 0 135 0 135 85 0 c73 0 86 3 95 19 19
36 12 40 -82 43 l-93 3 -3 103 -3 102 115 0 115 0 16 30 16 30 -171 0 -170 0
0 -300z"/>
<path d="M9340 715 l-35 -12 -3 -76 -3 -77 -44 7 c-67 9 -112 -4 -157 -45 -54
-48 -78 -102 -78 -175 0 -132 73 -211 195 -210 60 0 152 32 161 57 2 6 3 131
2 277 l-3 266 -35 -12z m-59 -225 c17 -10 19 -23 19 -151 l0 -139 -26 -10
c-97 -37 -167 24 -167 145 0 67 18 112 59 144 29 23 83 28 115 11z"/>
<path d="M10818 719 c-34 -19 -16 -79 23 -79 21 0 49 26 49 45 0 17 -27 45
-43 45 -7 0 -20 -5 -29 -11z"/>
<path d="M1940 675 c-34 -11 -35 -13 -38 -68 -3 -49 -6 -57 -22 -57 -16 0 -20
-7 -20 -30 0 -23 5 -30 19 -30 17 0 19 -11 22 -148 5 -169 13 -194 76 -211 60
-17 73 -14 73 14 0 18 -7 26 -26 31 -37 9 -44 39 -44 185 l0 129 40 0 c38 0
40 2 40 30 0 28 -2 30 -40 30 l-39 0 -3 68 -3 69 -35 -12z"/>
<path d="M3680 675 c-34 -11 -35 -13 -38 -68 -3 -49 -6 -57 -22 -57 -16 0 -20
-7 -20 -30 0 -23 4 -30 20 -30 19 0 20 -7 20 -142 0 -94 5 -152 13 -168 14
-29 70 -60 110 -60 22 0 27 4 27 25 0 18 -7 26 -25 31 -14 3 -30 14 -35 24 -6
10 -10 80 -10 154 l0 136 40 0 c38 0 40 2 40 30 0 28 -2 30 -40 30 l-39 0 -3
68 -3 69 -35 -12z"/>
<path d="M10593 674 c-32 -13 -33 -17 -33 -69 0 -52 -1 -55 -25 -55 -21 0 -25
-5 -25 -30 0 -25 4 -30 25 -30 l25 0 0 -145 c0 -81 5 -154 11 -168 14 -31 40
-46 94 -54 43 -5 45 -4 45 18 0 17 -10 28 -33 39 l-32 15 -3 148 -3 147 36 0
c32 0 35 2 35 30 0 28 -3 30 -35 30 l-35 0 0 70 c0 39 -3 70 -7 69 -5 0 -23
-7 -40 -15z"/>
<path d="M1553 546 c-23 -7 -58 -23 -77 -36 l-36 -22 0 -179 0 -179 40 0 40 0
0 170 0 169 30 16 c30 16 97 20 116 7 28 -18 34 -56 34 -206 l0 -156 40 0 40
0 0 168 c0 179 -5 200 -52 235 -34 25 -118 32 -175 13z"/>
<path d="M2223 541 c-78 -36 -120 -139 -102 -251 10 -64 40 -113 87 -142 48
-30 152 -31 202 -2 37 22 44 33 31 53 -8 12 -15 11 -50 -3 -23 -9 -56 -16 -75
-16 -59 0 -116 64 -116 130 l0 30 125 0 125 0 0 39 c0 78 -36 141 -97 167 -44
19 -80 17 -130 -5z m126 -67 c12 -15 21 -37 21 -50 0 -23 -2 -24 -86 -24 -74
0 -85 2 -80 16 3 9 6 19 6 23 0 5 9 20 21 35 16 20 29 26 59 26 30 0 43 -6 59
-26z"/>
<path d="M2653 546 c-23 -8 -58 -23 -77 -36 l-36 -22 0 -179 0 -179 40 0 40 0
0 169 0 169 31 11 c18 6 47 11 65 11 32 0 34 2 34 35 0 32 -3 35 -27 34 -16 0
-47 -6 -70 -13z"/>
<path d="M2913 546 c-23 -7 -58 -23 -77 -36 l-36 -22 0 -179 0 -179 40 0 40 0
0 170 0 169 30 16 c43 22 103 19 126 -6 17 -19 19 -40 22 -185 l3 -164 40 0
39 0 0 168 c0 178 -5 200 -51 234 -33 25 -122 32 -176 14z"/>
<path d="M3283 548 c-39 -8 -43 -12 -43 -40 0 -24 3 -29 17 -23 10 3 45 8 78
11 79 7 109 -9 113 -57 l3 -36 -76 -6 c-133 -12 -171 -47 -166 -159 2 -44 54
-94 111 -108 59 -14 145 0 184 31 26 20 26 22 26 163 0 132 -2 146 -23 177
-35 52 -121 70 -224 47z m167 -278 c0 -66 -1 -71 -26 -80 -83 -32 -164 29
-134 101 15 35 43 47 108 48 l52 1 0 -70z"/>
<path d="M4160 538 c-168 -85 -132 -382 49 -413 57 -9 120 11 162 54 41 41 59
91 59 169 0 159 -138 256 -270 190z m139 -63 c60 -51 64 -213 5 -271 -25 -26
-71 -32 -106 -13 -53 28 -77 179 -39 249 33 63 90 77 140 35z"/>
<path d="M4610 544 c-25 -9 -57 -25 -72 -36 l-28 -19 0 -180 0 -179 40 0 40 0
0 174 0 174 31 11 c49 17 97 13 119 -9 18 -18 20 -33 20 -185 l0 -165 40 0 40
0 0 170 c0 180 -6 208 -48 236 -36 24 -128 28 -182 8z"/>
<path d="M5015 556 c-5 -2 -22 -7 -37 -10 -23 -5 -28 -12 -28 -37 0 -23 4 -30
15 -25 29 11 114 18 139 12 36 -9 56 -33 56 -67 0 -27 -2 -29 -42 -30 -87 -1
-139 -15 -170 -46 -59 -60 -43 -163 33 -208 50 -30 150 -27 209 6 l45 25 0
149 c0 165 -6 184 -57 211 -30 15 -140 29 -163 20z m145 -286 c0 -66 -1 -71
-26 -80 -100 -38 -189 55 -119 125 20 21 34 25 85 25 l60 0 0 -70z"/>
<path d="M6243 541 c-26 -12 -52 -36 -70 -62 -24 -36 -29 -55 -32 -125 -4
-103 19 -161 82 -202 53 -35 153 -38 206 -7 38 23 45 33 32 54 -8 12 -15 11
-50 -3 -48 -19 -90 -21 -124 -5 -31 14 -67 77 -67 118 l0 31 126 0 127 0 -6
62 c-11 125 -115 190 -224 139z m126 -67 c12 -15 21 -37 21 -50 0 -23 -2 -24
-85 -24 -47 0 -85 2 -85 5 0 19 31 75 47 84 34 20 80 13 102 -15z"/>
<path d="M6660 544 c-25 -9 -60 -27 -77 -41 l-33 -24 0 -175 0 -174 45 0 45 0
0 174 0 174 31 11 c49 17 97 13 119 -9 18 -18 20 -33 20 -185 l0 -165 40 0 40
0 0 169 c0 93 -4 180 -9 194 -22 57 -133 83 -221 51z"/>
<path d="M7124 551 c-17 -5 -51 -19 -75 -32 l-44 -24 -3 -183 -2 -182 40 0 40
0 0 174 0 174 31 11 c49 17 97 13 119 -9 18 -18 20 -33 20 -185 l0 -165 46 0
47 0 -5 176 c-4 155 -7 178 -25 202 -33 44 -109 62 -189 43z"/>
<path d="M7670 542 c-68 -36 -88 -126 -39 -178 12 -13 53 -35 91 -50 84 -32
109 -61 84 -98 -26 -40 -107 -45 -163 -10 -19 12 -23 11 -37 -10 -12 -20 -13
-26 -2 -35 26 -22 87 -41 131 -41 97 0 155 49 155 131 0 60 -18 81 -99 115
-98 43 -106 48 -109 76 -6 50 62 73 132 44 32 -13 34 -13 45 10 15 33 16 30
-29 48 -53 21 -117 20 -160 -2z"/>
<path d="M8725 542 c-74 -35 -108 -99 -108 -202 1 -114 47 -187 135 -210 51
-14 125 -5 167 21 27 16 30 22 21 39 -13 24 -9 24 -53 5 -98 -41 -187 13 -187
114 l0 31 126 0 127 0 -6 55 c-13 131 -115 197 -222 147z m118 -60 c9 -10 20
-33 23 -50 l7 -32 -87 0 c-54 0 -86 4 -86 11 0 14 19 50 38 72 20 23 84 23
105 -1z"/>
<path d="M9560 538 c-55 -28 -85 -72 -100 -144 -21 -101 17 -205 90 -248 44
-26 149 -28 197 -3 40 21 45 30 30 51 -11 16 -15 16 -49 1 -99 -41 -188 13
-188 114 l0 31 126 0 127 0 -6 55 c-14 134 -117 200 -227 143z m123 -56 c9
-10 20 -33 23 -50 l7 -32 -87 0 c-54 0 -86 4 -86 11 0 14 19 50 38 72 20 23
84 23 105 -1z"/>
<path d="M9993 546 c-23 -8 -58 -23 -77 -36 l-36 -22 0 -179 0 -179 40 0 40 0
0 169 0 169 31 11 c18 6 47 11 65 11 32 0 34 2 34 35 0 32 -3 35 -27 34 -16 0
-47 -6 -70 -13z"/>
<path d="M10203 549 c-39 -9 -43 -13 -43 -41 0 -23 4 -29 15 -24 29 11 114 18
139 12 36 -9 56 -33 56 -67 0 -27 -3 -29 -39 -29 -66 0 -144 -19 -168 -42 -61
-57 -48 -165 25 -210 53 -33 150 -32 212 3 l45 24 3 131 c3 155 -8 199 -56
227 -38 22 -130 30 -189 16z m167 -279 c0 -66 -1 -71 -26 -80 -47 -18 -84 -12
-115 19 -36 36 -37 73 -4 106 20 21 34 25 85 25 l60 0 0 -70z"/>
<path d="M11096 550 c-72 -23 -129 -116 -129 -210 0 -221 256 -301 352 -111
53 104 24 239 -65 300 -35 24 -114 35 -158 21z m98 -62 c56 -25 85 -154 52
-232 -17 -40 -60 -76 -93 -76 -40 0 -90 58 -98 113 -12 77 2 136 40 174 35 35
58 40 99 21z"/>
<path d="M11544 551 c-17 -5 -51 -19 -75 -32 l-44 -24 -3 -183 -2 -182 40 0
40 0 0 174 0 174 31 11 c49 17 97 13 119 -9 18 -18 20 -33 20 -185 l0 -165 46
0 47 0 -5 176 c-4 155 -7 178 -25 202 -33 44 -109 62 -189 43z"/>
<path d="M3918 538 l-28 -10 0 -199 0 -199 40 0 40 0 0 210 c0 225 2 218 -52
198z"/>
<path d="M7463 538 l-33 -11 0 -198 0 -199 40 0 40 0 0 210 c0 116 -3 210 -7
209 -5 -1 -23 -6 -40 -11z"/>
<path d="M10833 538 l-33 -11 0 -198 0 -199 40 0 40 0 0 210 c0 116 -3 210 -7
209 -5 -1 -23 -6 -40 -11z"/>
</g>
</svg>
